<?xml version="1.0" encoding="utf-8"?>
<!-- Generator: Adobe Illustrator 26.0.2, SVG Export Plug-In . SVG Version: 6.00 Build 0)  -->
<svg version="1.1" id="Layer_1" xmlns="http://www.w3.org/2000/svg" xmlns:xlink="http://www.w3.org/1999/xlink" x="0px" y="0px"
	 viewBox="0 0 500 500" style="enable-background:new 0 0 500 500;" xml:space="preserve">
<path style="fill:#591EEB;" d="M93.753,252.574c0.644-49.073,17.998-87.853,52.737-119.22
	c29.131-26.303,63.318-38.841,101.997-39.44c24.229-0.375,47.276,5.724,68.858,16.807c4.125,2.119,7.298,2.05,11.353-0.243
	c17.278-9.772,38.298-7.08,52.364,6.313c14.308,13.624,18.506,36.02,9.483,53.265c-2.473,4.725-2.539,8.427-0.273,13.259
	c20.588,43.885,21.117,88.687,0.73,132.145c-22.547,48.063-60.642,78.506-113.718,87.914c-36.683,6.503-72.111,1.688-104.244-17.677
	C122.229,355.076,95.031,310.011,93.753,252.574z M139.22,252.848c0.555,41.082,20.508,74.238,59.011,95.383
	c37.743,20.728,91.181,15.417,125.558-17.474c35.48-33.946,46.11-87.421,23.063-130.375c-1.282-2.39-4.441-4.672-7.115-5.274
	c-20.404-4.588-31.49-15.797-35.701-36.413c-0.402-1.967-1.981-4.354-3.698-5.292c-26.058-14.237-53.796-16.965-81.964-8.916
	C170.97,158.032,139.798,200.23,139.22,252.848z"/>
<path style="fill:#591EEB;" d="M326.776,438.755c9.266,13.446,17.783,25.803,26.453,38.383c-14.275,6.93-30.6,12.447-47.533,16.21
	c-50.967,11.325-100.939,7.704-149.595-11.054c-23.856-9.197-45.381-22.787-64.895-39.261
	c-22.868-19.306-42.416-41.536-57.678-67.476C12.846,340.403,2.41,302.363,0.136,261.827C-2.791,209.648,9.982,161.646,38.17,117.73
	c2.122-3.306,2.232-5.944,0.764-9.554c-9.548-23.473-0.125-51,21.913-64.758c22.027-13.751,51.22-9.74,68.331,9.187
	c15.558,17.209,19.105,37.103,10.459,57.968c-8.806,21.251-26.07,32.325-49.279,33.53c-1.513,0.079-3.228,0.401-4.524-0.152
	c-8.285-3.54-11.1,1.676-14.436,7.867c-30.955,57.459-33.606,117.344-9.036,176.516c25.436,61.257,71.827,101.877,136.951,118.767
	c39.662,10.286,79.112,8.075,117.926-5.091C320.919,440.762,324.593,439.5,326.776,438.755z"/>
<path style="fill:#591EEB;" d="M422.889,357.351c44.466-70.807,37.748-166.803-10.194-229.528
	C363.671,63.683,273.79,22.723,172.667,60.936c-8.692-12.743-17.254-25.296-26.166-38.361c5.315-2.232,12.011-5.458,18.981-7.901
	C205.985,0.478,247.448-3.133,289.917,3.23c58.759,8.803,106.739,36.903,146.279,80.536c31.09,34.309,51.095,74.135,59.301,119.698
	c10.089,56.021,3.597,109.771-23.243,160.477c-3.446,6.51-7.761,12.561-11.151,19.096c-1.102,2.124-1.437,5.458-0.595,7.652
	c9.365,24.428,0.936,51.22-20.792,65.159c-22.008,14.119-50.475,10.892-68.596-7.777c-17.771-18.309-20.958-46.983-6.349-67.652
	c12.82-18.137,30.36-27.451,53.315-23.641C419.571,357.023,421.077,357.138,422.889,357.351z"/>
<path style="fill:#591EEB;" d="M249.896,187.598c33.567,0.123,62.31,28.946,62.196,62.371c-0.114,33.598-28.843,62.305-62.31,62.261
	c-33.637-0.044-62.137-28.673-62.095-62.375C187.73,216.136,216.369,187.475,249.896,187.598z"/>
</svg>
