<?xml version="1.0" encoding="utf-8"?>
<!-- Generator: Adobe Illustrator 26.0.2, SVG Export Plug-In . SVG Version: 6.00 Build 0)  -->
<svg version="1.1" id="Layer_1" xmlns="http://www.w3.org/2000/svg" xmlns:xlink="http://www.w3.org/1999/xlink" x="0px" y="0px"
	 viewBox="0 0 1920 1080" style="enable-background:new 0 0 1920 1080;" xml:space="preserve">
<style type="text/css">
	.st0{fill:#6200F5;}
	.st1{fill:#FFFFFF;}
</style>
<rect class="st0" width="1920" height="1080"/>
<g>
	<path class="st1" d="M1198.3,380c2.8,0,4.9,0,7,0c20.8,0,41.6,0.1,62.4-0.1c4.4,0,5.8,1.2,5.7,5.7c-0.3,13.1-0.1,26.2-0.1,39.3
		c0,1.5,0,3,0,5.1c-2.2,0.1-4,0.3-5.7,0.3c-21.2,0-42.5,0.1-63.7-0.1c-4.5,0-5.7,1.4-5.6,5.8c0.3,10.2,0.3,20.3,0,30.5
		c-0.1,4.4,1,5.8,5.6,5.7c26.6-0.2,53.3-0.1,79.9-0.1c1.8,0,3.6,0,5.8,0c0,16.9,0,33.4,0,50.2c-50.2,0-100.2,0-150.6,0
		c0-76.3,0-152.5,0-229.2c48.8,0,97.7,0,146.9,0c0,16.5,0,33.1,0,50.1c-2,0-3.8,0-5.6,0c-25.3,0-50.5,0-75.8,0c-6.1,0-6.1,0-6.1,6.4
		C1198.3,359.4,1198.3,369.2,1198.3,380z"/>
	<path class="st1" d="M812.2,433.6c2-1.3,3.7-2.4,5.3-3.5c14.8-9.5,24.2-22.9,28.8-39.8c2.8-10.4,3.3-21,2.5-31.6
		c-2.1-27.6-15.1-47.5-41.5-57.9c-14.4-5.6-29.4-7.8-44.7-7.9c-29.1-0.3-58.2-0.1-87.3-0.1c-1.3,0-2.7,0.2-4.1,0.3
		c0,76.5,0,152.8,0,229c20,0,39.6,0,59.5,0c0-2.2,0-4,0-5.9c0-22,0.1-44-0.1-66.1c0-4.1,1.2-5.5,5.2-5.2c4.4,0.3,8.9,0.3,13.4,0
		c4-0.3,6,1.2,7.8,4.8c11.7,23.2,23.8,46.2,35.5,69.4c1.3,2.6,2.8,3.5,5.6,3.4c8.6-0.2,17.2-0.1,25.9-0.1c12.3,0,24.6,0,37.7,0
		C845,492.5,828.7,463.1,812.2,433.6z M776.8,392.5c-7.6,4.4-16.1,5-24.5,5.4c-5.7,0.3-11.4-0.1-17.1,0.1c-3.4,0.1-4.6-1-4.5-4.5
		c0.1-2,0.1-4.1,0.1-6.1c0.1-6.1,0-12.2,0-18.4c0-6.2-0.1-12.5,0-18.7c0-2.1,0.1-4.2,0.1-6.2c0-1.2,1.5-3.5,2.3-3.4
		c12.3,0.3,24.7-0.2,36.8,1.5c12.7,1.8,18.7,8.8,20.2,20.1C791.8,375.4,786.8,386.7,776.8,392.5z"/>
	<path class="st1" d="M1093.2,371.6c-4.7-23.4-15.1-43.9-33.6-59.5c-20-16.9-43.6-23.4-69.3-23.5c-6,0.5-12,0.6-17.9,1.4
		c-36.4,5-63.4,23.5-77.6,57.6c-16.3,39.4-15.8,79.6,0.2,119.1c10.5,26.1,29.7,44.2,56.5,53.7c18,6.4,36.7,7.6,55.5,5
		c40.8-5.6,68-28.3,81.6-66.9C1098.6,430.1,1099.1,400.9,1093.2,371.6z M1024.7,453.3c-12.9,22.8-40.2,28.5-59.3,12.4
		c-6.9-5.8-11.5-13.3-14.3-21.7c-8.1-24.2-8.5-48.7-0.4-72.9c5.1-15.1,14.6-26.5,31.1-29.6c19.8-3.7,36.1,5,44.9,23.3
		c6.4,13.3,7.9,27.7,8.3,42.2C1034.6,423,1032.8,438.9,1024.7,453.3z"/>
	<g>
		<path class="st1" d="M1281,556.6c-199.8,0-399.5,0-599.3,0c-10.9,0-13.4,2.4-13.4,13.2c0,66.1,0,132.1,0,198.2
			c0,10.5,2.6,13.2,13,13.2c100,0,199.9,0,299.9,0s199.9,0,299.9,0c10.5,0,13.1-2.6,13.1-13.1c0-66.1,0-132.1,0-198.2
			C1294.2,559,1291.8,556.6,1281,556.6z M803.1,644.3c-5.6,0-10.9,0.2-16.2-0.1c-4.2-0.2-5.6,1.2-5.6,5.5
			c0.2,17.9,0.1,35.7,0.1,53.6c0,2,0,3.9,0,6c-7.9,0-15.1,0-22.9,0c0-2,0-3.8,0-5.6c0-18.2-0.1-36.3,0.1-54.5c0-3.8-1-5.2-4.9-5
			c-5.6,0.3-11.3,0.1-17.1,0.1c0-6.7,0-12.7,0-19.2c22.2,0,44.2,0,66.7,0C803.1,631.3,803.1,637.5,803.1,644.3z M885.1,709.3
			c-7.2,0-14.3,0-22.1,0c0-10.7,0-21.5,0-32.6c-8.4,0-16.1,0-24.7,0c0,10.9,0,21.6,0,32.7c-7.6,0-14.7,0-22.3,0
			c0-27.8,0-55.7,0-83.9c7.2,0,14.3,0,22.1,0c0,10.1,0,20.3,0,30.8c8.4,0,16.1,0,24.5,0c0-10.1,0-20.3,0-30.8c7.7,0,14.9,0,22.4,0
			C885.1,653.2,885.1,681.1,885.1,709.3z M959.1,709.5c-18.3,0-36.5,0-55.2,0c0-28,0-56.1,0-84.6c18.1,0,35.9,0,54.1,0
			c0,6.3,0,12.4,0,19.4c-3.3,0-6.6,0-9.9,0c-5.9,0-11.7,0.1-17.6,0c-3.3-0.1-4.9,0.8-4.5,4.4c0.3,2.4,0.1,4.9,0.1,8
			c7.7,0,15.1,0.2,22.4-0.1c3.9-0.1,5.7,0.9,5.3,5.1c-0.4,4.6,1.4,11.1-1,13.3c-2.7,2.5-8.9,1.1-13.6,1.3c-4.1,0.1-8.3,0-13.1,0
			c0,4.1-0.3,7.9,0.2,11.6c0.1,0.9,2.5,2.2,3.9,2.3c7.7,0.2,15.4,0.1,23.1,0.1c1.8,0,3.6,0,5.7,0C959.1,696.9,959.1,703,959.1,709.5
			z M1067.7,683.7c-4.7,15.7-16.1,23.9-31.7,25.4c-11.2,1.1-22.7,0.2-34.3,0.2c0-28.1,0-56,0-85.2c13.9,0.9,27.6,0.7,40.9,2.9
			c14.3,2.4,22.9,12.3,26,26.6C1070.8,663.8,1070.7,673.8,1067.7,683.7z M1139.4,709.6c-18.5,0-36.8,0-55.4,0c0-28.3,0-56.3,0-84.6
			c18.1,0,36.1,0,54.3,0c0,6.4,0,12.5,0,19.3c-7.7,0-15.2-0.1-22.7,0c-11.1,0.1-9.1-1.6-9.3,9.6c0,0.6,0.1,1.2,0.2,2.7
			c6.4,0,12.8,0,19.2,0c9.5,0.1,8.2-0.8,8.2,8c0.1,11.6,0,11.6-11.5,11.6c-5.2,0-10.4,0-15.9,0c-0.9,14-0.9,14,12,14
			c6.5,0,12.9,0.1,19.4,0.2c0.4,0,0.8,0.3,1.4,0.5C1139.4,697.1,1139.4,703.2,1139.4,709.6z M1221.4,628.4
			c-7.7,25.7-15.5,51.5-23.1,77.2c-0.9,3-2.1,4.2-5.4,4.1c-6.8-0.3-13.6,0.1-20.3-0.2c-1.3-0.1-3.5-1.4-3.8-2.6
			c-7.8-26.4-15.4-52.8-23-79.2c-0.2-0.7,0-1.5,0-2.6c7.2,0,14.2-0.2,21.3,0.2c1.1,0,2.8,2.1,3.1,3.4c4.1,17.3,8,34.7,11.9,52.1
			c0.4,1.6,0.9,3.3,1.3,4.9c0.2-0.1,0.5-0.1,0.7-0.2c4.4-18.3,9-36.7,13.2-55.1c0.9-4,2.3-5.7,6.6-5.4c5.8,0.4,11.6,0.1,17.8,0.1
			C1221.6,626.4,1221.7,627.4,1221.4,628.4z"/>
		<path class="st1" d="M1024.3,690.3c0-15.5,0-30.7,0-45.8c9.7-2.4,17.9,2.1,20.7,11.3c2.3,7.7,2.2,15.5-0.2,23.2
			C1042,687.6,1034.3,691.8,1024.3,690.3z"/>
	</g>
</g>
</svg>
