<?xml version="1.0" encoding="utf-8"?>
<!-- Generator: Adobe Illustrator 26.0.2, SVG Export Plug-In . SVG Version: 6.00 Build 0)  -->
<svg version="1.1" id="Layer_1"
    xmlns="http://www.w3.org/2000/svg"
    xmlns:xlink="http://www.w3.org/1999/xlink" x="0px" y="0px" viewBox="0 0 1920 1080" style="enable-background:new 0 0 1920 1080;" xml:space="preserve">
    <path style="fill:#fff;" d="M1437.546,209.35c5.827,0,10.289,0,14.75,0c43.695,0.001,87.392,0.243,131.082-0.19
	c9.289-0.092,12.244,2.55,12.041,11.99c-0.59,27.499-0.209,55.019-0.209,82.53c0,3.188,0,6.377,0,10.631
	c-4.57,0.231-8.314,0.581-12.058,0.584c-44.666,0.039-89.334,0.289-133.995-0.184c-9.541-0.101-12.084,2.912-11.812,12.122
	c0.631,21.343,0.638,42.731-0.003,64.074c-0.276,9.172,2.18,12.128,11.721,12.054c55.991-0.437,111.986-0.214,167.98-0.214
	c3.822,0,7.645,0,12.144,0c0,35.581,0,70.303,0,105.58c-105.507,0-210.576,0-316.578,0c0-160.318,0-320.619,0-481.691
	c102.63,0,205.347,0,308.778,0c0,34.752,0,69.474,0,105.364c-4.121,0-7.905,0-11.689,0c-53.081,0-106.162-0.004-159.242,0.003
	c-12.896,0.002-12.904,0.017-12.908,13.348C1437.541,166.029,1437.546,186.707,1437.546,209.35z"/>
    <path style="fill:#fff;" d="M625.84,322.058c4.298-2.812,7.758-5.102,11.244-7.352c31.026-20.031,50.809-48.105,60.46-83.66
	c5.932-21.85,7.006-44.138,5.336-66.403c-4.354-58.033-31.824-99.951-87.214-121.716c-30.222-11.875-61.88-16.341-93.953-16.704
	c-61.161-0.692-122.337-0.208-183.506-0.178c-2.816,0.001-5.631,0.34-8.698,0.538c0,160.898,0,321.179,0,481.368
	c42.047,0,83.261,0,125.04,0c0-4.632,0-8.492,0-12.352c0-46.281,0.215-92.565-0.19-138.843c-0.076-8.648,2.533-11.485,11.022-10.897
	c9.341,0.646,18.799,0.667,28.136-0.01c8.316-0.604,12.611,2.577,16.375,10.017c24.652,48.731,49.94,97.139,74.694,145.819
	c2.781,5.469,5.91,7.297,11.867,7.175c18.117-0.371,36.246-0.134,54.37-0.134c25.804,0,51.608,0,79.212,0
	C694.895,445.77,660.485,384.126,625.84,322.058z M551.422,235.593c-16.019,9.21-33.791,10.475-51.562,11.309
	c-11.951,0.561-23.96-0.198-35.921,0.232c-7.089,0.255-9.73-2.028-9.533-9.392c0.115-4.286,0.181-8.573,0.217-12.861
	c0.106-12.864-0.07-25.736-0.07-38.603c0.006-13.11-0.107-26.222,0.016-39.329c0.041-4.369,0.108-8.737,0.214-13.105
	c0.062-2.564,3.153-7.281,4.763-7.247c25.815,0.541,51.9-0.318,77.345,3.256c26.796,3.763,39.304,18.563,42.444,42.198
	C582.992,199.577,572.403,223.53,551.422,235.593z"/>
    <path style="fill:#fff;" d="M1216.532,191.606c-9.97-49.242-31.719-92.277-70.613-125.17
	c-41.977-35.499-91.553-49.145-145.762-49.436c-12.56,0.957-25.208,1.274-37.666,2.975
	C885.993,30.421,829.144,69.273,799.406,141.06c-34.306,82.814-33.117,167.381,0.322,250.348
	c22.13,54.907,62.528,92.856,118.669,112.903c37.902,13.534,77.145,16.016,116.722,10.581
	c85.737-11.773,142.847-59.555,171.578-140.599C1227.854,314.617,1229.017,253.274,1216.532,191.606z M1072.624,363.325
	c-27.02,47.968-84.543,59.962-124.55,26.094c-14.453-12.235-24.074-27.952-29.988-45.684
	c-16.978-50.909-17.925-102.277-0.901-153.224c10.626-31.801,30.608-55.779,65.474-62.288c41.679-7.78,75.964,10.518,94.478,49.057
	c13.477,28.055,16.553,58.148,17.375,88.791C1093.365,299.819,1089.635,333.127,1072.624,363.325z"/>
    <g>
        <path style="fill:#fff;" d="M1611.273,580.501c-419.909-0.008-839.818-0.008-1259.727,0c-22.961,0-28.135,5.144-28.136,27.819
		c-0.004,138.891-0.004,277.781,0,416.672c0,22.156,5.497,27.715,27.396,27.715c210.117,0.002,420.233,0.001,630.349,0.001
		c210.116,0,420.233,0.001,630.349-0.001c22.063,0,27.606-5.51,27.606-27.478c0.005-138.891,0.004-277.781,0-416.672
		C1639.111,585.648,1634.031,580.501,1611.273,580.501z M606.806,764.982c-11.703,0-22.955,0.438-34.154-0.14
		c-8.763-0.453-11.86,2.5-11.761,11.529c0.413,37.543,0.17,75.094,0.168,112.642c0,4.104,0,8.208,0,12.686
		c-16.568,0-31.665,0-48.233,0c0-4.205,0-7.955,0-11.705c0-38.196-0.208-76.393,0.167-114.585
		c0.078-7.971-2.121-10.967-10.304-10.57c-11.842,0.574-23.733,0.147-36.024,0.147c0-14.176,0-26.715,0-40.308
		c46.579,0,92.917,0,140.141,0C606.806,737.597,606.806,750.601,606.806,764.982z M779.024,901.486c-15.042,0-30.088,0-46.374,0
		c0-22.539,0-45.278,0-68.627c-17.571,0-33.928,0-51.868,0c0,22.99,0,45.493,0,68.645c-15.914,0-30.96,0-46.837,0
		c0-58.515,0-117.14,0-176.456c15.038,0,30.084,0,46.372,0c0,21.232,0,42.688,0,64.74c17.572,0,33.93,0,51.528,0
		c0-21.222,0-42.669,0-64.761c16.259,0,31.304,0,47.179,0C779.024,783.547,779.024,842.172,779.024,901.486z M934.672,902.041
		c-38.473,0-76.799,0-116.064,0c0-58.927,0-117.892,0-177.835c38.079,0,75.524,0,113.763,0c0,13.299,0,26.041,0,40.772
		c-6.88,0-13.824-0.001-20.767,0c-12.303,0.003-24.614,0.271-36.906-0.093c-6.884-0.204-10.332,1.681-9.479,9.271
		c0.568,5.049,0.108,10.214,0.108,16.716c16.279,0,31.719,0.389,47.126-0.157c8.221-0.292,12.001,1.791,11.135,10.747
		c-0.927,9.59,2.895,23.307-2.087,27.866c-5.655,5.174-18.767,2.384-28.648,2.697c-8.695,0.276-17.406,0.058-27.472,0.058
		c0,8.618-0.567,16.641,0.397,24.475c0.243,1.971,5.351,4.676,8.29,4.761c16.175,0.471,32.37,0.233,48.558,0.238
		c3.821,0.001,7.642,0,12.047,0C934.672,875.549,934.672,888.358,934.672,902.041z M1162.988,847.834
		c-9.891,33.022-33.839,50.137-66.645,53.377c-23.607,2.332-47.63,0.454-72.103,0.454c0-59.024,0-117.623,0-179.024
		c29.122,1.852,57.993,1.386,85.996,6.092c30.112,5.06,48.068,25.861,54.661,55.948
		C1169.549,805.915,1169.223,827.018,1162.988,847.834z M1313.613,902.248c-38.865,0-77.263,0-116.389,0
		c0-59.389,0-118.39,0-177.927c38.118,0,75.846,0,114.169,0c0,13.493,0,26.297,0,40.657c-16.103,0-31.88-0.171-47.653,0.041
		c-23.268,0.312-19.161-3.361-19.558,20.272c-0.021,1.269,0.215,2.542,0.494,5.58c13.391,0,26.829-0.061,40.267,0.014
		c19.966,0.111,17.194-1.772,17.299,16.855c0.137,24.343,0.035,24.344-24.23,24.344c-10.928,0-21.857,0-33.333,0
		c-1.992,29.473-1.991,29.435,25.178,29.489c13.593,0.027,27.185,0.202,40.777,0.381c0.885,0.012,1.763,0.627,2.978,1.088
		C1313.613,875.893,1313.613,888.741,1313.613,902.248z M1486.077,731.438c-16.206,54.106-32.586,108.16-48.611,162.32
		c-1.876,6.34-4.5,8.86-11.362,8.584c-14.217-0.572-28.486,0.131-42.703-0.435c-2.827-0.113-7.277-3.043-8.017-5.549
		c-16.373-55.403-32.338-110.927-48.312-166.447c-0.41-1.426-0.052-3.073-0.052-5.523c15.08,0,29.913-0.323,44.702,0.333
		c2.334,0.104,5.821,4.317,6.494,7.168c8.599,36.437,16.77,72.976,25.093,109.478c0.789,3.458,1.874,6.849,2.822,10.271
		c0.519-0.156,1.039-0.312,1.557-0.467c9.305-38.568,18.848-77.08,27.723-115.746c1.908-8.31,4.803-11.97,13.933-11.287
		c12.181,0.911,24.481,0.225,37.51,0.225C1486.557,727.254,1486.671,729.452,1486.077,731.438z"/>
        <path style="fill:#fff;" d="M1071.653,861.709c0-32.563,0-64.492,0-96.321c20.288-4.998,37.604,4.417,43.491,23.798
		c4.921,16.202,4.568,32.645-0.476,48.697C1108.998,855.928,1092.854,864.753,1071.653,861.709z"/>
    </g>
</svg>
