<svg xmlns="http://www.w3.org/2000/svg" viewBox="0 0 1315.707 1035.708"><path d="M1437.546,209.35c5.828,0,10.289,0,14.751,0,43.694,0,87.392.243,131.082-.19,9.289-.093,12.244,2.55,12.041,11.99-.59,27.5-.209,55.018-.209,82.53v10.631c-4.57.231-8.314.581-12.058.584-44.666.039-89.335.29-134-.184-9.541-.1-12.084,2.912-11.812,12.122q.947,32.014,0,64.074c-.276,9.171,2.179,12.128,11.72,12.053,55.991-.436,111.987-.214,167.981-.213h12.144v105.58H1312.61V26.636h308.778V132H1609.7q-79.622,0-159.242,0c-12.9,0-12.9.017-12.909,13.348C1437.541,166.029,1437.546,186.707,1437.546,209.35Z" transform="translate(-323.408 -17)" style="fill:#6200f5"/><path d="M625.84,322.058c4.3-2.812,7.758-5.1,11.244-7.352,31.026-20.031,50.808-48.105,60.46-83.66,5.932-21.85,7.006-44.138,5.336-66.4-4.354-58.033-31.823-99.951-87.214-121.716-30.222-11.875-61.88-16.341-93.953-16.7-61.162-.692-122.337-.208-183.506-.178-2.816,0-5.631.34-8.7.538V507.951h125.04V495.6c0-46.282.215-92.565-.19-138.843-.075-8.649,2.533-11.485,11.023-10.9a199.538,199.538,0,0,0,28.135-.01c8.316-.6,12.611,2.577,16.375,10.017C534.544,404.6,559.832,453,584.586,501.684c2.781,5.468,5.911,7.3,11.868,7.175,18.116-.372,36.245-.135,54.37-.135,25.8,0,51.608,0,79.212,0C694.9,445.77,660.485,384.126,625.84,322.058Zm-74.418-86.465C535.4,244.8,517.631,246.068,499.86,246.9c-11.95.561-23.959-.2-35.921.232-7.089.255-9.73-2.029-9.533-9.392q.173-6.429.217-12.861c.106-12.864-.07-25.736-.07-38.6.006-13.11-.107-26.222.016-39.329q.061-6.553.214-13.105c.062-2.564,3.153-7.281,4.763-7.247,25.816.541,51.9-.318,77.346,3.256,26.8,3.763,39.3,18.563,42.444,42.2C582.992,199.577,572.4,223.53,551.422,235.593Z" transform="translate(-323.408 -17)" style="fill:#6200f5"/><path d="M1216.532,191.606c-9.97-49.242-31.719-92.277-70.613-125.17-41.977-35.5-91.553-49.144-145.762-49.436-12.56.957-25.208,1.274-37.666,2.975-76.5,10.446-133.347,49.3-163.085,121.085-34.306,82.814-33.117,167.381.322,250.348,22.129,54.907,62.527,92.856,118.669,112.9,37.9,13.534,77.145,16.015,116.722,10.581,85.737-11.773,142.848-59.555,171.579-140.6C1227.854,314.617,1229.017,253.274,1216.532,191.606ZM1072.624,363.325c-27.02,47.968-84.542,59.962-124.549,26.094-14.453-12.235-24.075-27.951-29.988-45.684-16.978-50.909-17.925-102.277-.9-153.224,10.626-31.8,30.608-55.779,65.474-62.287,41.679-7.781,75.964,10.518,94.478,49.056,13.477,28.055,16.553,58.148,17.375,88.791C1093.365,299.819,1089.635,333.127,1072.624,363.325Z" transform="translate(-323.408 -17)" style="fill:#6200f5"/><path d="M1244.68,832.083c-1.991,29.473-1.991,29.435,25.178,29.489,13.593.027,27.186.2,40.777.381.886.011,1.764.627,2.978,1.088v39.207H1197.224V724.321h114.169v40.657c-16.1,0-31.88-.172-47.652.04-23.269.312-19.161-3.361-19.558,20.272-.021,1.268.215,2.541.494,5.58,13.39,0,26.829-.061,40.267.014,19.966.111,17.194-1.772,17.3,16.855.137,24.343.035,24.344-24.23,24.344Z" transform="translate(-323.408 -17)" style="fill:#fff"/><path d="M1611.273,580.5q-629.863-.01-1259.727,0c-22.961,0-28.135,5.144-28.136,27.819q0,208.337,0,416.672c0,22.156,5.5,27.714,27.4,27.715q315.176,0,630.35,0t630.349,0c22.063,0,27.606-5.51,27.606-27.478q.007-208.337,0-416.672C1639.111,585.648,1634.031,580.5,1611.273,580.5ZM606.806,764.982c-11.7,0-22.954.438-34.154-.141-8.762-.453-11.86,2.5-11.761,11.529.413,37.543.171,75.094.169,112.642,0,4.1,0,8.208,0,12.686H512.827v-11.7c0-38.2-.209-76.393.167-114.585.078-7.971-2.121-10.967-10.305-10.57-11.842.574-23.733.147-36.024.147V724.677H606.806Zm172.218,136.5H732.649V832.859H680.781V901.5H633.945V725.049h46.372v64.739h51.528v-64.76h47.179Zm155.648.555H818.608V724.205H932.371v40.772c-6.88,0-13.824,0-20.767,0-12.3,0-24.614.271-36.906-.093-6.884-.2-10.333,1.681-9.48,9.271.568,5.049.108,10.214.108,16.716,16.279,0,31.719.389,47.126-.157,8.221-.292,12,1.791,11.135,10.747-.927,9.589,2.895,23.307-2.087,27.866-5.655,5.174-18.767,2.383-28.648,2.7-8.695.276-17.406.058-27.472.058,0,8.618-.567,16.64.4,24.475.242,1.971,5.351,4.675,8.29,4.761,16.174.47,32.37.233,48.558.238h12.047Zm228.316-54.207c-9.892,33.022-33.84,50.137-66.645,53.377-23.608,2.331-47.631.454-72.1.454V722.641c29.121,1.851,57.993,1.386,85.995,6.092,30.113,5.061,48.068,25.862,54.661,55.948C1169.549,805.915,1169.223,827.018,1162.988,847.834Zm150.625,54.414H1197.224V724.321h114.169v40.656c-16.1,0-31.88-.171-47.653.041-23.268.312-19.16-3.361-19.557,20.272-.022,1.269.215,2.541.494,5.58,13.391,0,26.829-.061,40.267.014,19.966.111,17.194-1.772,17.3,16.855.137,24.343.035,24.344-24.23,24.344H1244.68c-1.991,29.473-1.991,29.435,25.178,29.489,13.593.026,27.185.2,40.777.38.886.012,1.764.627,2.978,1.088Zm172.463-170.81c-16.2,54.106-32.586,108.16-48.61,162.319-1.876,6.34-4.5,8.861-11.362,8.585-14.217-.572-28.485.131-42.7-.436-2.827-.112-7.277-3.042-8.017-5.548-16.373-55.4-32.338-110.927-48.313-166.448-.41-1.426-.052-3.073-.052-5.523,15.08,0,29.913-.323,44.7.333,2.334.1,5.821,4.317,6.494,7.168,8.6,36.438,16.77,72.976,25.094,109.479.788,3.458,1.874,6.849,2.822,10.271l1.557-.467c9.3-38.568,18.848-77.081,27.723-115.747,1.908-8.309,4.8-11.969,13.933-11.287,12.181.911,24.481.225,37.509.225C1486.556,727.254,1486.671,729.452,1486.076,731.438Z" transform="translate(-323.408 -17)" style="fill:#6200f5"/><path d="M1071.653,861.709V765.388c20.287-5,37.6,4.417,43.49,23.8a81.2,81.2,0,0,1-.475,48.7C1109,855.928,1092.854,864.752,1071.653,861.709Z" transform="translate(-323.408 -17)" style="fill:#6200f5"/></svg>