<svg preserveAspectRatio="none"  version="1.1" id="Layer_1" xmlns="http://www.w3.org/2000/svg" xmlns:xlink="http://www.w3.org/1999/xlink" x="0px" y="0px"
	 viewBox="0 0 1920 1080" style="enable-background:new 0 0 1920 1080;" xml:space="preserve">
  <defs>
        <clipPath id="wave-bg-clip-path">
<path style="fill:#6200F5;" d="M1919.9,159c-39.8-58.5-257.2-153.4-572.2-158.9c-271.9-4.7-674.3,103.3-979.9,87.7S-2.5,16.5-2.5,16.5L0,921
	h0.5c39.4,58.5,256.9,153.6,572.3,159.1c271.9,4.7,674.3-103.3,979.9-87.7s367.3,71.4,367.3,71.4V921V159H1919.9z"/>
	</clipPath>
	</defs>
	<path style="fill:#6200F5;" d="M1919.9,159c-39.8-58.5-257.2-153.4-572.2-158.9c-271.9-4.7-674.3,103.3-979.9,87.7S-2.5,16.5-2.5,16.5L0,921
	h0.5c39.4,58.5,256.9,153.6,572.3,159.1c271.9,4.7,674.3-103.3,979.9-87.7s367.3,71.4,367.3,71.4V921V159H1919.9z"/>
</svg>